<?xml version="1.0" encoding="UTF-8"?>
<svg width="123px" height="29px" viewBox="0 0 123 29" version="1.1" xmlns="http://www.w3.org/2000/svg" xmlns:xlink="http://www.w3.org/1999/xlink">
    <!-- Generator: Sketch 48.2 (47327) - http://www.bohemiancoding.com/sketch -->
    <title>Page 1</title>
    <desc>Created with Sketch.</desc>
    <defs>
        <polygon id="path-1" points="0.5504 0.1352 4.371 0.1352 4.371 3.9352 0.5504 3.9352"></polygon>
        <polygon id="path-3" points="0 29.8652 122.371 29.8652 122.371 1.0002 0 1.0002"></polygon>
    </defs>
    <g id="Dashboard-Copy-2" stroke="none" stroke-width="1" fill="none" fill-rule="evenodd" transform="translate(-435.000000, -509.000000)">
        <g id="Page-1" transform="translate(435.000000, 508.000000)">
            <path d="M19.7578,20.9707 L16.5008,19.0877 L15.4868,18.4997 C15.0898,18.1967 14.8328,17.7187 14.8328,17.1797 C14.8328,16.6417 15.0898,16.1627 15.4868,15.8587 L16.5008,15.2697 L13.2508,13.3827 C12.1798,14.2987 11.5008,15.6587 11.5008,17.1797 C11.5008,18.6957 12.1768,20.0547 13.2438,20.9707 C13.4228,21.1237 13.6118,21.2657 13.8108,21.3927 L16.5008,22.9457 L25.4918,28.1377 C26.2308,28.5677 27.0878,28.8157 28.0038,28.8157 C30.7638,28.8157 33.0018,26.5757 33.0018,23.8167 L33.0018,10.5157 C33.0018,7.7557 30.7638,5.5167 28.0038,5.5167 C27.0828,5.5167 26.2208,5.7667 25.4808,6.2007 L16.5008,11.4077 L19.1908,12.9667 C19.3878,13.0927 19.5748,13.2317 19.7518,13.3817 L27.1518,9.0867 C27.4018,8.9367 27.6918,8.8487 28.0038,8.8487 C28.9238,8.8487 29.6698,9.5957 29.6698,10.5157 L29.6698,23.8167 C29.6698,24.7367 28.9238,25.4837 28.0038,25.4837 C27.6958,25.4837 27.4098,25.3987 27.1628,25.2517 L19.7578,20.9717" id="Fill-1" fill="#189FDA"></path>
            <path d="M84.3218,21.8975 L84.3218,12.0965 L88.9828,12.0965 L88.9828,8.8705 L84.3218,8.8705 L84.3218,4.4875 L80.9758,4.4875 L80.9758,21.8975 C80.9758,27.1165 84.2818,29.9455 89.0628,29.3865 L89.0628,26.2795 C86.5128,26.4395 84.3218,25.5235 84.3218,21.8975" id="Fill-3" fill="#FEFEFE"></path>
            <path d="M75.1367,2.4648 C74.0087,2.4648 73.0947,3.3788 73.0947,4.5068 C73.0947,5.6348 74.0087,6.5488 75.1367,6.5488 C76.2647,6.5488 77.1787,5.6348 77.1787,4.5068 C77.1787,3.3788 76.2647,2.4648 75.1367,2.4648" id="Fill-5" fill="#189FDA"></path>
            <path d="M117.1494,22.6221 L117.1494,1.1781 L113.7064,1.1781 L113.7064,22.6221 C113.7064,26.3911 116.7724,29.4571 120.5414,29.4571 L120.5414,26.0151 C118.6704,26.0151 117.1494,24.4921 117.1494,22.6221" id="Fill-7" fill="#FEFEFE"></path>
            <polygon id="Fill-9" fill="#FEFEFE" points="64.6875 2.7891 56.4865 22.5821 48.3255 2.7891 43.4845 2.7891 43.4845 29.0881 46.9065 29.0881 46.9065 7.4421 55.8165 29.0881 57.1575 29.0881 66.1065 7.4421 66.1065 29.0881 69.4685 29.0881 69.4685 2.7891"></polygon>
            <path d="M16.501,15.2695 L17.515,15.8585 C17.912,16.1635 18.169,16.6415 18.169,17.1795 C18.169,17.7185 17.912,18.1965 17.515,18.5005 L16.501,19.0865 L19.758,20.9705 C20.825,20.0545 21.501,18.6955 21.501,17.1795 C21.501,15.6595 20.822,14.2975 19.751,13.3815 C19.574,13.2315 19.387,13.0915 19.191,12.9665 L16.501,11.4075 L7.522,6.2015 C6.781,5.7675 5.919,5.5175 4.998,5.5175 C2.237,5.5175 0,7.7555 0,10.5155 L0,23.8165 C0,26.5775 2.237,28.8155 4.998,28.8155 C5.914,28.8155 6.771,28.5675 7.51,28.1365 L16.501,22.9455 L13.811,21.3925 C13.612,21.2655 13.422,21.1235 13.244,20.9705 L5.839,25.2515 C5.592,25.3985 5.305,25.4835 4.998,25.4835 C4.078,25.4835 3.332,24.7365 3.332,23.8165 L3.332,10.5155 C3.332,9.5955 4.078,8.8495 4.998,8.8495 C5.31,8.8495 5.6,8.9365 5.85,9.0865 L13.25,13.3815 L13.251,13.3815 L16.501,15.2695 Z" id="Fill-11" fill="#FEFEFE"></path>
            <g id="Group-15" transform="translate(118.000000, 0.865200)">
                <mask id="mask-2" fill="white">
                    <use xlink:href="#path-1"></use>
                </mask>
                <g id="Clip-14"></g>
                <path d="M2.0694,1.9082 L2.4304,1.9082 C2.7354,1.9082 3.0144,1.8932 3.0144,1.5422 C3.0144,1.2472 2.7604,1.2012 2.5274,1.2012 L2.0694,1.2012 L2.0694,1.9082 Z M1.7244,0.9222 L2.5824,0.9222 C3.1114,0.9222 3.3604,1.1312 3.3604,1.5572 C3.3604,1.9592 3.1064,2.1262 2.7764,2.1622 L3.4104,3.1432 L3.0404,3.1432 L2.4354,2.1872 L2.0694,2.1872 L2.0694,3.1432 L1.7244,3.1432 L1.7244,0.9222 Z M2.4654,3.6562 C3.3444,3.6562 4.0264,2.9552 4.0264,2.0252 C4.0264,1.1152 3.3444,0.4142 2.4654,0.4142 C1.5764,0.4142 0.8954,1.1152 0.8954,2.0252 C0.8954,2.9552 1.5764,3.6562 2.4654,3.6562 Z M2.4654,0.1352 C3.5024,0.1352 4.3714,0.9522 4.3714,2.0252 C4.3714,3.1172 3.5024,3.9352 2.4654,3.9352 C1.4244,3.9352 0.5504,3.1172 0.5504,2.0252 C0.5504,0.9522 1.4244,0.1352 2.4654,0.1352 Z" id="Fill-13" fill="#FEFEFE" mask="url(#mask-2)"></path>
            </g>
            <mask id="mask-4" fill="white">
                <use xlink:href="#path-3"></use>
            </mask>
            <g id="Clip-17"></g>
            <polygon id="Fill-16" fill="#FEFEFE" mask="url(#mask-4)" points="73.442 29.1022 76.833 29.1022 76.833 8.5612 73.442 8.5612"></polygon>
            <path d="M100.5664,11.4199 C103.5544,11.4199 106.3434,13.6509 107.1794,16.9969 L93.8734,16.9969 C94.7504,13.4909 97.7384,11.4199 100.5664,11.4199 M100.8024,26.7969 C97.4154,26.7969 94.1484,24.2869 93.7104,20.0239 L110.9604,20.0239 C111.0004,12.7339 105.9014,8.3519 100.6024,8.3519 C94.9054,8.3519 90.2844,13.2119 90.2844,19.1489 C90.2844,25.1639 94.9054,29.8649 100.8024,29.8649 C105.5424,29.8649 109.0484,27.3959 110.4824,23.0139 L106.8974,23.0139 C105.7814,25.4029 103.7094,26.7969 100.8024,26.7969" id="Fill-18" fill="#FEFEFE" mask="url(#mask-4)"></path>
        </g>
    </g>
</svg>